<svg width="17" height="20" viewBox="0 0 17 20" fill="none" xmlns="http://www.w3.org/2000/svg">
<path d="M2.75395 20.005C2.15722 20.005 1.58492 19.7679 1.16296 19.346C0.741006 18.924 0.503953 18.3517 0.503953 17.755L0.501953 3.75C0.501953 3.15326 0.739006 2.58097 1.16096 2.15901C1.58292 1.73705 2.15522 1.5 2.75195 1.5L3.49895 1.499L3.49995 0.750001C3.49996 0.568763 3.5656 0.393659 3.68472 0.25707C3.80384 0.120481 3.9684 0.0316489 4.14795 0.0070006L4.24995 6.25681e-07C4.43119 8.26858e-06 4.6063 0.0656433 4.74288 0.184768C4.87947 0.303892 4.96831 0.468447 4.99295 0.648001L4.99995 0.750001V1.499H7.99995V0.750001C8.00003 0.568462 8.06594 0.393112 8.18547 0.256479C8.305 0.119847 8.47004 0.0312057 8.64995 0.0070006L8.74995 6.25681e-07C8.93136 -0.000233583 9.10671 0.0652924 9.24351 0.184439C9.38031 0.303585 9.46928 0.468276 9.49395 0.648001L9.50095 0.750001V1.499H12.498L12.499 0.750001C12.499 0.568763 12.5646 0.393659 12.6837 0.25707C12.8028 0.120481 12.9674 0.0316489 13.147 0.0070006L13.25 6.25681e-07C13.4312 8.26858e-06 13.6063 0.0656433 13.7429 0.184768C13.8795 0.303892 13.9683 0.468447 13.993 0.648001L14 0.750001V1.499H14.749C15.3457 1.499 15.918 1.73605 16.3399 2.15801C16.7619 2.57997 16.999 3.15226 16.999 3.749L17 14.749C17 14.8097 16.9933 14.8683 16.98 14.925L16.95 15.019L16.905 15.115L16.885 15.147C16.8555 15.1954 16.8202 15.2401 16.78 15.28L12.276 19.785C12.249 19.8109 12.2206 19.8353 12.191 19.858L12.276 19.785C12.243 19.8164 12.2079 19.8454 12.171 19.872L12.083 19.924L11.967 19.971L11.853 19.997L11.8 20.003L11.745 20.005H2.75395ZM14.748 3H2.74195C2.54478 3.00263 2.35657 3.08281 2.21808 3.22318C2.07958 3.36354 2.00194 3.55281 2.00195 3.75L2.00395 17.754C2.00395 18.169 2.33995 18.504 2.75395 18.504H10.994L10.995 16.25C10.9949 15.6799 11.2112 15.131 11.6003 14.7142C11.9894 14.2975 12.5222 14.044 13.091 14.005L13.245 14H15.5V3.75C15.5 3.55109 15.4209 3.36032 15.2803 3.21967C15.1396 3.07902 14.9489 3 14.75 3M14.44 15.5H13.247C13.0657 15.5 12.8906 15.5656 12.754 15.6848C12.6174 15.8039 12.5286 15.9684 12.504 16.148L12.497 16.25V17.444L14.44 15.5ZM4.24995 14H8.24795C8.43798 14.0001 8.62089 14.0722 8.75974 14.202C8.8986 14.3317 8.98303 14.5093 8.99598 14.6989C9.00893 14.8885 8.94944 15.0759 8.82952 15.2233C8.7096 15.3707 8.5382 15.4671 8.34995 15.493L8.24795 15.5H4.24995C4.05993 15.4999 3.87701 15.4278 3.73816 15.298C3.59931 15.1683 3.51488 14.9907 3.50193 14.8011C3.48898 14.6115 3.54847 14.4241 3.66839 14.2767C3.7883 14.1293 3.9597 14.0329 4.14795 14.007L4.24995 14ZM4.24995 10H13.248C13.438 10.0001 13.6209 10.0722 13.7597 10.202C13.8986 10.3317 13.983 10.5093 13.996 10.6989C14.0089 10.8885 13.9494 11.0759 13.8295 11.2233C13.7096 11.3707 13.5382 11.4671 13.35 11.493L13.248 11.5H4.24995C4.05993 11.4999 3.87701 11.4278 3.73816 11.298C3.59931 11.1683 3.51488 10.9907 3.50193 10.8011C3.48898 10.6115 3.54847 10.4241 3.66839 10.2767C3.7883 10.1293 3.9597 10.0329 4.14795 10.007L4.24995 10ZM4.24995 6H13.248C13.438 6.00006 13.6209 6.07225 13.7597 6.20197C13.8986 6.3317 13.983 6.5093 13.996 6.69888C14.0089 6.88846 13.9494 7.07589 13.8295 7.2233C13.7096 7.37071 13.5382 7.4671 13.35 7.493L13.248 7.5H4.24995C4.05993 7.49994 3.87701 7.42776 3.73816 7.29803C3.59931 7.1683 3.51488 6.9907 3.50193 6.80112C3.48898 6.61154 3.54847 6.42411 3.66839 6.2767C3.7883 6.12929 3.9597 6.0329 4.14795 6.007L4.24995 6Z" fill="#ACACAC"/>
</svg>
