<svg width="22" height="18" viewBox="0 0 22 18" fill="none" xmlns="http://www.w3.org/2000/svg">
<path fill-rule="evenodd" clip-rule="evenodd" d="M8.944 0.25H12.056C13.894 0.25 15.35 0.25 16.489 0.403C17.661 0.561 18.61 0.893 19.359 1.641C20.283 2.566 20.578 3.804 20.685 5.411C21.262 5.664 21.698 6.201 21.745 6.881C21.75 6.942 21.75 7.007 21.75 7.067V10.933C21.75 10.993 21.75 11.058 21.746 11.118C21.698 11.798 21.262 12.336 20.685 12.59C20.578 14.196 20.283 15.434 19.359 16.359C18.61 17.107 17.661 17.439 16.489 17.597C15.349 17.75 13.894 17.75 12.056 17.75H8.944C7.106 17.75 5.65 17.75 4.511 17.597C3.339 17.439 2.39 17.107 1.641 16.359C0.893 15.61 0.561 14.661 0.403 13.489C0.25 12.349 0.25 10.894 0.25 9.056V8.944C0.25 7.106 0.25 5.65 0.403 4.511C0.561 3.339 0.893 2.39 1.641 1.641C2.39 0.893 3.339 0.561 4.511 0.403C5.651 0.25 7.106 0.25 8.944 0.25ZM19.168 12.75H17.23C15.085 12.75 13.249 11.122 13.249 9C13.249 6.878 15.085 5.25 17.229 5.25H19.167C19.053 3.909 18.796 3.2 18.297 2.702C17.874 2.279 17.294 2.025 16.288 1.89C15.261 1.752 13.906 1.75 11.999 1.75H8.999C7.092 1.75 5.738 1.752 4.709 1.89C3.704 2.025 3.124 2.279 2.701 2.702C2.278 3.125 2.025 3.705 1.89 4.71C1.752 5.738 1.75 7.092 1.75 8.999C1.75 10.906 1.752 12.261 1.89 13.289C2.025 14.294 2.279 14.874 2.702 15.297C3.125 15.72 3.705 15.974 4.711 16.109C5.739 16.247 7.093 16.249 9 16.249H12C13.907 16.249 15.262 16.247 16.29 16.109C17.295 15.974 17.875 15.72 18.298 15.297C18.797 14.799 19.054 14.091 19.168 12.749M4.25 5C4.25 4.80109 4.32902 4.61032 4.46967 4.46967C4.61032 4.32902 4.80109 4.25 5 4.25H9C9.19891 4.25 9.38968 4.32902 9.53033 4.46967C9.67098 4.61032 9.75 4.80109 9.75 5C9.75 5.19891 9.67098 5.38968 9.53033 5.53033C9.38968 5.67098 9.19891 5.75 9 5.75H5C4.80109 5.75 4.61032 5.67098 4.46967 5.53033C4.32902 5.38968 4.25 5.19891 4.25 5ZM19.924 6.75H17.23C15.806 6.75 14.749 7.809 14.749 9C14.749 10.191 15.806 11.25 17.229 11.25H19.947C20.153 11.237 20.242 11.098 20.249 11.014V6.986C20.242 6.902 20.153 6.763 19.947 6.751L19.924 6.75Z" fill="#ACACAC"/>
</svg>
